<?xml version="1.0" standalone="no"?><svg xmlns="http://www.w3.org/2000/svg" viewBox="0 0 1440 320"><path fill="#00cba9" fill-opacity="1" d="M0,64L24,85.3C48,107,96,149,144,149.3C192,149,240,107,288,96C336,85,384,107,432,96C480,85,528,43,576,53.3C624,64,672,128,720,181.3C768,235,816,277,864,277.3C912,277,960,235,1008,229.3C1056,224,1104,256,1152,224C1200,192,1248,96,1296,58.7C1344,21,1392,43,1416,53.3L1440,64L1440,320L1416,320C1392,320,1344,320,1296,320C1248,320,1200,320,1152,320C1104,320,1056,320,1008,320C960,320,912,320,864,320C816,320,768,320,720,320C672,320,624,320,576,320C528,320,480,320,432,320C384,320,336,320,288,320C240,320,192,320,144,320C96,320,48,320,24,320L0,320Z"></path></svg>